<mxfile host="app.diagrams.net" modified="2023-08-08T07:05:13.366Z" agent="Mozilla/5.0 (Windows NT 10.0; Win64; x64) AppleWebKit/537.36 (KHTML, like Gecko) Chrome/115.0.0.0 Safari/537.36" etag="_1fW0l7iUQ32ZXMkd_Fm" version="21.6.6" type="github">
  <diagram id="6a731a19-8d31-9384-78a2-239565b7b9f0" name="Page-1">
    <mxGraphModel dx="1909" dy="985" grid="1" gridSize="10" guides="1" tooltips="1" connect="1" arrows="1" fold="1" page="1" pageScale="1" pageWidth="827" pageHeight="1169" background="none" math="0" shadow="0">
      <root>
        <mxCell id="0" />
        <mxCell id="1" parent="0" />
        <mxCell id="bUXFmLOiYSVHrfobJHpv-2262" style="edgeStyle=orthogonalEdgeStyle;rounded=0;orthogonalLoop=1;jettySize=auto;html=1;exitX=0.5;exitY=1;exitDx=0;exitDy=0;exitPerimeter=0;entryX=0.25;entryY=0.25;entryDx=0;entryDy=0;entryPerimeter=0;" edge="1" parent="1" source="bUXFmLOiYSVHrfobJHpv-2258" target="bUXFmLOiYSVHrfobJHpv-2259">
          <mxGeometry relative="1" as="geometry" />
        </mxCell>
        <mxCell id="bUXFmLOiYSVHrfobJHpv-2271" value="" style="edgeStyle=orthogonalEdgeStyle;rounded=0;orthogonalLoop=1;jettySize=auto;html=1;" edge="1" parent="1" source="bUXFmLOiYSVHrfobJHpv-2258" target="bUXFmLOiYSVHrfobJHpv-2270">
          <mxGeometry relative="1" as="geometry" />
        </mxCell>
        <mxCell id="bUXFmLOiYSVHrfobJHpv-2258" value="" style="shape=mxgraph.cisco.computers_and_peripherals.ibm_mini_as400;sketch=0;html=1;pointerEvents=1;dashed=0;fillColor=#036897;strokeColor=#ffffff;strokeWidth=2;verticalLabelPosition=bottom;verticalAlign=top;align=center;outlineConnect=0;" vertex="1" parent="1">
          <mxGeometry x="90" y="100" width="103" height="120" as="geometry" />
        </mxCell>
        <object label="" SmartCloudVNPT="SmartCloud VNPT" id="bUXFmLOiYSVHrfobJHpv-2259">
          <mxCell style="ellipse;shape=cloud;whiteSpace=wrap;html=1;" vertex="1" parent="1">
            <mxGeometry x="10" y="260" width="790" height="150" as="geometry" />
          </mxCell>
        </object>
        <mxCell id="bUXFmLOiYSVHrfobJHpv-2260" value="&lt;font color=&quot;#ff66b3&quot;&gt;SmartCloud VNPT&lt;/font&gt;" style="text;html=1;strokeColor=none;fillColor=none;align=center;verticalAlign=middle;whiteSpace=wrap;rounded=0;fontSize=27;fontStyle=1" vertex="1" parent="1">
          <mxGeometry x="230" y="295" width="400" height="80" as="geometry" />
        </mxCell>
        <mxCell id="bUXFmLOiYSVHrfobJHpv-2267" style="edgeStyle=orthogonalEdgeStyle;rounded=0;orthogonalLoop=1;jettySize=auto;html=1;exitX=0.5;exitY=1;exitDx=0;exitDy=0;exitPerimeter=0;entryX=1;entryY=0;entryDx=0;entryDy=0;" edge="1" parent="1" source="bUXFmLOiYSVHrfobJHpv-2265" target="bUXFmLOiYSVHrfobJHpv-2260">
          <mxGeometry relative="1" as="geometry" />
        </mxCell>
        <mxCell id="bUXFmLOiYSVHrfobJHpv-2278" value="" style="edgeStyle=orthogonalEdgeStyle;rounded=0;orthogonalLoop=1;jettySize=auto;html=1;" edge="1" parent="1" source="bUXFmLOiYSVHrfobJHpv-2265" target="bUXFmLOiYSVHrfobJHpv-2277">
          <mxGeometry relative="1" as="geometry" />
        </mxCell>
        <mxCell id="bUXFmLOiYSVHrfobJHpv-2265" value="" style="shape=mxgraph.cisco.computers_and_peripherals.ibm_mini_as400;sketch=0;html=1;pointerEvents=1;dashed=0;fillColor=#036897;strokeColor=#ffffff;strokeWidth=2;verticalLabelPosition=bottom;verticalAlign=top;align=center;outlineConnect=0;" vertex="1" parent="1">
          <mxGeometry x="610" y="90" width="103" height="120" as="geometry" />
        </mxCell>
        <mxCell id="bUXFmLOiYSVHrfobJHpv-2269" value="" style="shape=doubleArrow;whiteSpace=wrap;html=1;" vertex="1" parent="1">
          <mxGeometry x="200" y="130" width="410" height="60" as="geometry" />
        </mxCell>
        <mxCell id="bUXFmLOiYSVHrfobJHpv-2270" value="DB server" style="text;strokeColor=none;fillColor=none;html=1;fontSize=24;fontStyle=1;verticalAlign=middle;align=center;" vertex="1" parent="1">
          <mxGeometry x="92" y="27" width="100" height="40" as="geometry" />
        </mxCell>
        <mxCell id="bUXFmLOiYSVHrfobJHpv-2275" style="edgeStyle=orthogonalEdgeStyle;rounded=0;orthogonalLoop=1;jettySize=auto;html=1;entryX=0.06;entryY=1.036;entryDx=0;entryDy=0;entryPerimeter=0;" edge="1" parent="1" source="bUXFmLOiYSVHrfobJHpv-2272" target="bUXFmLOiYSVHrfobJHpv-2260">
          <mxGeometry relative="1" as="geometry">
            <Array as="points">
              <mxPoint x="141" y="560" />
              <mxPoint x="254" y="560" />
            </Array>
          </mxGeometry>
        </mxCell>
        <mxCell id="bUXFmLOiYSVHrfobJHpv-2272" value="" style="shape=mxgraph.cisco.computers_and_peripherals.laptop;sketch=0;html=1;pointerEvents=1;dashed=0;fillColor=#036897;strokeColor=#ffffff;strokeWidth=2;verticalLabelPosition=bottom;verticalAlign=top;align=center;outlineConnect=0;" vertex="1" parent="1">
          <mxGeometry x="96" y="690" width="90" height="61" as="geometry" />
        </mxCell>
        <mxCell id="bUXFmLOiYSVHrfobJHpv-2276" style="edgeStyle=orthogonalEdgeStyle;rounded=0;orthogonalLoop=1;jettySize=auto;html=1;entryX=0.5;entryY=1;entryDx=0;entryDy=0;entryPerimeter=0;exitX=0.25;exitY=0.2;exitDx=0;exitDy=0;exitPerimeter=0;" edge="1" parent="1" source="bUXFmLOiYSVHrfobJHpv-2273" target="bUXFmLOiYSVHrfobJHpv-2272">
          <mxGeometry relative="1" as="geometry">
            <mxPoint x="141" y="910" as="sourcePoint" />
          </mxGeometry>
        </mxCell>
        <mxCell id="bUXFmLOiYSVHrfobJHpv-2273" value="" style="shape=actor;whiteSpace=wrap;html=1;" vertex="1" parent="1">
          <mxGeometry x="40" y="840" width="40" height="60" as="geometry" />
        </mxCell>
        <mxCell id="bUXFmLOiYSVHrfobJHpv-2277" value="App server" style="text;strokeColor=none;fillColor=none;html=1;fontSize=24;fontStyle=1;verticalAlign=middle;align=center;" vertex="1" parent="1">
          <mxGeometry x="567" y="20" width="190" height="40" as="geometry" />
        </mxCell>
        <mxCell id="bUXFmLOiYSVHrfobJHpv-2279" value="SSH/SFTP" style="text;strokeColor=none;fillColor=none;html=1;fontSize=24;fontStyle=1;verticalAlign=middle;align=center;" vertex="1" parent="1">
          <mxGeometry x="140" y="507" width="90" height="40" as="geometry" />
        </mxCell>
        <mxCell id="bUXFmLOiYSVHrfobJHpv-2280" value="Admin" style="text;strokeColor=none;fillColor=none;html=1;fontSize=24;fontStyle=1;verticalAlign=middle;align=center;" vertex="1" parent="1">
          <mxGeometry x="10" y="790" width="100" height="40" as="geometry" />
        </mxCell>
        <mxCell id="bUXFmLOiYSVHrfobJHpv-2281" value="Internal comunication&lt;br&gt;" style="text;html=1;strokeColor=none;fillColor=none;align=center;verticalAlign=middle;whiteSpace=wrap;rounded=0;fontSize=28;" vertex="1" parent="1">
          <mxGeometry x="380" y="100" width="60" height="30" as="geometry" />
        </mxCell>
        <mxCell id="bUXFmLOiYSVHrfobJHpv-2285" style="edgeStyle=orthogonalEdgeStyle;rounded=0;orthogonalLoop=1;jettySize=auto;html=1;entryX=0.8;entryY=0.8;entryDx=0;entryDy=0;entryPerimeter=0;" edge="1" parent="1" source="bUXFmLOiYSVHrfobJHpv-2284" target="bUXFmLOiYSVHrfobJHpv-2259">
          <mxGeometry relative="1" as="geometry">
            <mxPoint x="570" y="430" as="targetPoint" />
            <Array as="points">
              <mxPoint x="745" y="550" />
              <mxPoint x="642" y="550" />
            </Array>
          </mxGeometry>
        </mxCell>
        <mxCell id="bUXFmLOiYSVHrfobJHpv-2284" value="" style="image;aspect=fixed;perimeter=ellipsePerimeter;html=1;align=center;shadow=0;dashed=0;spacingTop=3;image=img/lib/active_directory/cell_phone.svg;" vertex="1" parent="1">
          <mxGeometry x="710" y="751" width="70" height="166.67" as="geometry" />
        </mxCell>
        <mxCell id="bUXFmLOiYSVHrfobJHpv-2287" value="App Luckylott or&lt;br&gt;Webview in Saigon Bank" style="text;html=1;strokeColor=none;fillColor=none;align=center;verticalAlign=middle;whiteSpace=wrap;rounded=0;fontSize=22;fontStyle=1" vertex="1" parent="1">
          <mxGeometry x="460" y="666" width="280" height="88" as="geometry" />
        </mxCell>
        <mxCell id="bUXFmLOiYSVHrfobJHpv-2288" value="https" style="text;html=1;strokeColor=none;fillColor=none;align=center;verticalAlign=middle;whiteSpace=wrap;rounded=0;fontSize=27;fontStyle=1" vertex="1" parent="1">
          <mxGeometry x="661" y="495" width="70" height="49" as="geometry" />
        </mxCell>
      </root>
    </mxGraphModel>
  </diagram>
</mxfile>
